<?xml version="1.0" encoding="UTF-8"?>
<svg id="Capa_1" xmlns="http://www.w3.org/2000/svg" version="1.1" viewBox="0 0 321.5 321.9">
  <!-- Generator: Adobe Illustrator 29.0.1, SVG Export Plug-In . SVG Version: 2.1.0 Build 192)  -->
  <defs>
    <style>
      .st0 {
        fill: #62e05d;
      }

      .st1 {
        fill: #fff;
        font-family: FjallaOne-Regular, 'Fjalla One';
        font-size: 147.6px;
      }

      .st2 {
        fill: #2c6a39;
      }
    </style>
  </defs>
  <rect class="st2" x="-2551.1" y="-769.2" width="1080" height="1084.9"/>
  <g>
    <path class="st0" d="M-2313.4-49.1h-66.8c-25.3-53.1-39.4-112.5-39.4-175.2s14.1-122.1,39.4-175.2h66.8V-49.1Z"/>
    <path class="st0" d="M-1987.6-338.3V-112.3c52.4-10.9,91.9-57.4,91.9-113s-39.5-102.1-91.9-113ZM-2126.5-225.3c0,55.6,39.5,102.1,91.9,113v-226c-52.4,10.9-91.9,57.4-91.9,113ZM-2126.5-225.3c0,55.6,39.5,102.1,91.9,113v-226c-52.4,10.9-91.9,57.4-91.9,113ZM-2034.6-386.1v-246.1c-133.9,7.6-250.5,79.6-319.3,185.6h87.5V-2h-87.5c68.8,106,185.5,178,319.3,185.6V-64.6c-78.5-11.4-138.9-79.1-138.9-160.7s60.5-149.3,138.9-160.7ZM-1987.6-338.3V-112.3c52.4-10.9,91.9-57.4,91.9-113s-39.5-102.1-91.9-113ZM-1641.9-399.5h-66.9V-49.1h66.9c25.3-53.1,39.4-112.5,39.4-175.2s-14.1-122.1-39.4-175.2ZM-2126.5-225.3c0,55.6,39.5,102.1,91.9,113v-226c-52.4,10.9-91.9,57.4-91.9,113ZM-1987.6-338.3V-112.3c52.4-10.9,91.9-57.4,91.9-113s-39.5-102.1-91.9-113ZM-1755.8-446.6h87.6c-68.8-106-185.5-178-319.3-185.6v246.1c78.5,11.4,138.9,79.2,138.9,160.7s-60.5,149.3-138.9,160.7v248.2c133.9-7.6,250.5-79.6,319.3-185.6h-87.6v-444.5ZM-1895.7-225.3c0-55.6-39.5-102.1-91.9-113V-112.3c52.4-10.9,91.9-57.4,91.9-113ZM-2126.5-225.3c0,55.6,39.5,102.1,91.9,113v-226c-52.4,10.9-91.9,57.4-91.9,113ZM-1987.6-338.3V-112.3c52.4-10.9,91.9-57.4,91.9-113s-39.5-102.1-91.9-113ZM-2126.5-225.3c0,55.6,39.5,102.1,91.9,113v-226c-52.4,10.9-91.9,57.4-91.9,113ZM-1987.6-338.3V-112.3c52.4-10.9,91.9-57.4,91.9-113s-39.5-102.1-91.9-113ZM-2126.5-225.3c0,55.6,39.5,102.1,91.9,113v-226c-52.4,10.9-91.9,57.4-91.9,113Z"/>
  </g>
  <g>
    <path class="st0" d="M47.7,224.9h-24.9c-9.4-19.8-14.7-42-14.7-65.4s5.3-45.6,14.7-65.4h24.9v130.8Z"/>
    <path class="st0" d="M169.2,116.9v84.3c19.6-4.1,34.3-21.4,34.3-42.2s-14.7-38.1-34.3-42.2ZM117.4,159.1c0,20.7,14.7,38.1,34.3,42.2v-84.3c-19.6,4.1-34.3,21.4-34.3,42.2ZM117.4,159.1c0,20.7,14.7,38.1,34.3,42.2v-84.3c-19.6,4.1-34.3,21.4-34.3,42.2ZM151.7,99.1V7.3c-50,2.8-93.5,29.7-119.2,69.3h32.7v165.9h-32.7c25.7,39.5,69.2,66.4,119.2,69.3v-92.6c-29.3-4.3-51.8-29.5-51.8-60s22.6-55.7,51.8-60ZM169.2,116.9v84.3c19.6-4.1,34.3-21.4,34.3-42.2s-14.7-38.1-34.3-42.2ZM298.2,94.1h-24.9v130.8h24.9c9.4-19.8,14.7-42,14.7-65.4s-5.3-45.6-14.7-65.4ZM117.4,159.1c0,20.7,14.7,38.1,34.3,42.2v-84.3c-19.6,4.1-34.3,21.4-34.3,42.2ZM169.2,116.9v84.3c19.6-4.1,34.3-21.4,34.3-42.2s-14.7-38.1-34.3-42.2ZM255.7,76.5h32.7C262.7,37,219.2,10.1,169.2,7.3v91.8c29.3,4.3,51.8,29.5,51.8,60s-22.6,55.7-51.8,60v92.6c50-2.8,93.5-29.7,119.2-69.3h-32.7V76.5ZM203.5,159.1c0-20.7-14.7-38.1-34.3-42.2v84.3c19.6-4.1,34.3-21.4,34.3-42.2ZM117.4,159.1c0,20.7,14.7,38.1,34.3,42.2v-84.3c-19.6,4.1-34.3,21.4-34.3,42.2ZM169.2,116.9v84.3c19.6-4.1,34.3-21.4,34.3-42.2s-14.7-38.1-34.3-42.2ZM117.4,159.1c0,20.7,14.7,38.1,34.3,42.2v-84.3c-19.6,4.1-34.3,21.4-34.3,42.2ZM169.2,116.9v84.3c19.6-4.1,34.3-21.4,34.3-42.2s-14.7-38.1-34.3-42.2ZM117.4,159.1c0,20.7,14.7,38.1,34.3,42.2v-84.3c-19.6,4.1-34.3,21.4-34.3,42.2Z"/>
  </g>
  <g>
    <g>
      <path class="st0" d="M47.7-155.5h-24.9c-9.4-19.8-14.7-42-14.7-65.4s5.3-45.6,14.7-65.4h24.9v130.8Z"/>
      <path class="st0" d="M169.2-263.4v84.3c19.6-4.1,34.3-21.4,34.3-42.2s-14.7-38.1-34.3-42.2ZM117.4-221.2c0,20.7,14.7,38.1,34.3,42.2v-84.3c-19.6,4.1-34.3,21.4-34.3,42.2ZM117.4-221.2c0,20.7,14.7,38.1,34.3,42.2v-84.3c-19.6,4.1-34.3,21.4-34.3,42.2ZM151.7-281.2v-91.8c-50,2.8-93.5,29.7-119.2,69.3h32.7v165.9h-32.7c25.7,39.5,69.2,66.4,119.2,69.3v-92.6c-29.3-4.3-51.8-29.5-51.8-60s22.6-55.7,51.8-60ZM169.2-263.4v84.3c19.6-4.1,34.3-21.4,34.3-42.2s-14.7-38.1-34.3-42.2ZM298.2-286.2h-24.9v130.8h24.9c9.4-19.8,14.7-42,14.7-65.4s-5.3-45.6-14.7-65.4ZM117.4-221.2c0,20.7,14.7,38.1,34.3,42.2v-84.3c-19.6,4.1-34.3,21.4-34.3,42.2ZM169.2-263.4v84.3c19.6-4.1,34.3-21.4,34.3-42.2s-14.7-38.1-34.3-42.2ZM255.7-303.8h32.7c-25.7-39.5-69.2-66.4-119.2-69.3v91.8c29.3,4.3,51.8,29.5,51.8,60s-22.6,55.7-51.8,60v92.6c50-2.8,93.5-29.7,119.2-69.3h-32.7v-165.9ZM203.5-221.2c0-20.7-14.7-38.1-34.3-42.2v84.3c19.6-4.1,34.3-21.4,34.3-42.2ZM117.4-221.2c0,20.7,14.7,38.1,34.3,42.2v-84.3c-19.6,4.1-34.3,21.4-34.3,42.2ZM169.2-263.4v84.3c19.6-4.1,34.3-21.4,34.3-42.2s-14.7-38.1-34.3-42.2ZM117.4-221.2c0,20.7,14.7,38.1,34.3,42.2v-84.3c-19.6,4.1-34.3,21.4-34.3,42.2ZM169.2-263.4v84.3c19.6-4.1,34.3-21.4,34.3-42.2s-14.7-38.1-34.3-42.2ZM117.4-221.2c0,20.7,14.7,38.1,34.3,42.2v-84.3c-19.6,4.1-34.3,21.4-34.3,42.2Z"/>
    </g>
    <text class="st1" transform="translate(370.7 -245.2)"><tspan x="0" y="0">EQUIPO</tspan><tspan x="0" y="177.1">ESTRELLA</tspan></text>
  </g>
</svg>